<svg id="arch4" width="3001.875" xmlns="http://www.w3.org/2000/svg" class="flowchart" height="825.375" viewBox="0 -1 3001.875 825.375" role="graphics-document document" aria-roledescription="flowchart-v2"><style>#arch4{font-family:Segoe UI,Arial,sans-serif;font-size:15px;fill:#172b44;}@keyframes edge-animation-frame{from{stroke-dashoffset:0;}}@keyframes dash{to{stroke-dashoffset:0;}}#arch4 .edge-animation-slow{stroke-dasharray:9,5!important;stroke-dashoffset:900;animation:dash 50s linear infinite;stroke-linecap:round;}#arch4 .edge-animation-fast{stroke-dasharray:9,5!important;stroke-dashoffset:900;animation:dash 20s linear infinite;stroke-linecap:round;}#arch4 .error-icon{fill:hsl(35.2941176471, 68%, 100%);}#arch4 .error-text{fill:#000000;stroke:#000000;}#arch4 .edge-thickness-normal{stroke-width:1px;}#arch4 .edge-thickness-thick{stroke-width:3.5px;}#arch4 .edge-pattern-solid{stroke-dasharray:0;}#arch4 .edge-thickness-invisible{stroke-width:0;fill:none;}#arch4 .edge-pattern-dashed{stroke-dasharray:3;}#arch4 .edge-pattern-dotted{stroke-dasharray:2;}#arch4 .marker{fill:#60768b;stroke:#60768b;}#arch4 .marker.cross{stroke:#60768b;}#arch4 svg{font-family:Segoe UI,Arial,sans-serif;font-size:15px;}#arch4 p{margin:0;}#arch4 .label{font-family:Segoe UI,Arial,sans-serif;color:#172b44;}#arch4 .cluster-label text{fill:#000000;}#arch4 .cluster-label span{color:#000000;}#arch4 .cluster-label span p{background-color:transparent;}#arch4 .label text,#arch4 span{fill:#172b44;color:#172b44;}#arch4 .node rect,#arch4 .node circle,#arch4 .node ellipse,#arch4 .node polygon,#arch4 .node path{fill:#eaf1fb;stroke:#547396;stroke-width:1px;}#arch4 .rough-node .label text,#arch4 .node .label text,#arch4 .image-shape .label,#arch4 .icon-shape .label{text-anchor:middle;}#arch4 .node .katex path{fill:#000;stroke:#000;stroke-width:1px;}#arch4 .rough-node .label,#arch4 .node .label,#arch4 .image-shape .label,#arch4 .icon-shape .label{text-align:center;}#arch4 .node.clickable{cursor:pointer;}#arch4 .root .anchor path{fill:#60768b!important;stroke-width:0;stroke:#60768b;}#arch4 .arrowheadPath{fill:#0b0b0b;}#arch4 .edgePath .path{stroke:#60768b;stroke-width:2.0px;}#arch4 .flowchart-link{stroke:#60768b;fill:none;}#arch4 .edgeLabel{background-color:#ffffff;text-align:center;}#arch4 .edgeLabel p{background-color:#ffffff;}#arch4 .edgeLabel rect{opacity:0.5;background-color:#ffffff;fill:#ffffff;}#arch4 .labelBkg{background-color:rgba(255, 255, 255, 0.5);}#arch4 .cluster rect{fill:#f7f9fc;stroke:#bac8d8;stroke-width:1px;}#arch4 .cluster text{fill:#000000;}#arch4 .cluster span{color:#000000;}#arch4 div.mermaidTooltip{position:absolute;text-align:center;max-width:200px;padding:2px;font-family:Segoe UI,Arial,sans-serif;font-size:12px;background:hsl(35.2941176471, 68%, 100%);border:1px solid hsl(35.2941176471, 28%, 90%);border-radius:2px;pointer-events:none;z-index:100;}#arch4 .flowchartTitleText{text-anchor:middle;font-size:18px;fill:#172b44;}#arch4 rect.text{fill:none;stroke-width:0;}#arch4 .icon-shape,#arch4 .image-shape{background-color:#ffffff;text-align:center;}#arch4 .icon-shape p,#arch4 .image-shape p{background-color:#ffffff;padding:2px;}#arch4 .icon-shape rect,#arch4 .image-shape rect{opacity:0.5;background-color:#ffffff;fill:#ffffff;}#arch4 .label-icon{display:inline-block;height:1em;overflow:visible;vertical-align:-0.125em;}#arch4 .node .label-icon path{fill:currentColor;stroke:revert;stroke-width:revert;}#arch4 :root{--mermaid-font-family:"trebuchet ms",verdana,arial,sans-serif;}#arch4 .store rect{fill:#e7f2eb!important;stroke:#487b60!important;color:#173b29!important;}#arch4 .store polygon{fill:#e7f2eb!important;stroke:#487b60!important;color:#173b29!important;}#arch4 .store ellipse{fill:#e7f2eb!important;stroke:#487b60!important;color:#173b29!important;}#arch4 .store circle{fill:#e7f2eb!important;stroke:#487b60!important;color:#173b29!important;}#arch4 .store path{fill:#e7f2eb!important;stroke:#487b60!important;color:#173b29!important;}#arch4 .store tspan{fill:#173b29!important;}</style><g><marker id="arch4_flowchart-v2-pointEnd" class="marker flowchart-v2" viewBox="0 0 10 10" refX="5" refY="5" markerUnits="userSpaceOnUse" markerWidth="8" markerHeight="8" orient="auto"><path d="M 0 0 L 10 5 L 0 10 z" class="arrowMarkerPath" style="stroke-width: 1; stroke-dasharray: 1, 0;"/></marker><marker id="arch4_flowchart-v2-pointStart" class="marker flowchart-v2" viewBox="0 0 10 10" refX="4.5" refY="5" markerUnits="userSpaceOnUse" markerWidth="8" markerHeight="8" orient="auto"><path d="M 0 5 L 10 10 L 10 0 z" class="arrowMarkerPath" style="stroke-width: 1; stroke-dasharray: 1, 0;"/></marker><marker id="arch4_flowchart-v2-circleEnd" class="marker flowchart-v2" viewBox="0 0 10 10" refX="11" refY="5" markerUnits="userSpaceOnUse" markerWidth="11" markerHeight="11" orient="auto"><circle cx="5" cy="5" r="5" class="arrowMarkerPath" style="stroke-width: 1; stroke-dasharray: 1, 0;"/></marker><marker id="arch4_flowchart-v2-circleStart" class="marker flowchart-v2" viewBox="0 0 10 10" refX="-1" refY="5" markerUnits="userSpaceOnUse" markerWidth="11" markerHeight="11" orient="auto"><circle cx="5" cy="5" r="5" class="arrowMarkerPath" style="stroke-width: 1; stroke-dasharray: 1, 0;"/></marker><marker id="arch4_flowchart-v2-crossEnd" class="marker cross flowchart-v2" viewBox="0 0 11 11" refX="12" refY="5.2" markerUnits="userSpaceOnUse" markerWidth="11" markerHeight="11" orient="auto"><path d="M 1,1 l 9,9 M 10,1 l -9,9" class="arrowMarkerPath" style="stroke-width: 2; stroke-dasharray: 1, 0;"/></marker><marker id="arch4_flowchart-v2-crossStart" class="marker cross flowchart-v2" viewBox="0 0 11 11" refX="-1" refY="5.2" markerUnits="userSpaceOnUse" markerWidth="11" markerHeight="11" orient="auto"><path d="M 1,1 l 9,9 M 10,1 l -9,9" class="arrowMarkerPath" style="stroke-width: 2; stroke-dasharray: 1, 0;"/></marker><g class="root"><g class="clusters"><g class="cluster" id="LINUX" data-look="classic"><rect style="" x="630" y="430.625" width="834.015625" height="385.75"/><g class="cluster-label" transform="translate(1011.8984375, 430.625)"><g><rect class="background" style="stroke: none"/><text y="-10.1" style=""><tspan class="text-outer-tspan" x="0" y="-0.1em" dy="1.1em"><tspan font-style="normal" class="text-inner-tspan" font-weight="normal">Linux</tspan><tspan font-style="normal" class="text-inner-tspan" font-weight="normal"> rules</tspan></tspan></text></g></g></g><g class="cluster" id="WINDOWS" data-look="classic"><rect style="" x="630" y="8" width="834.015625" height="402.625"/><g class="cluster-label" transform="translate(998.1953125, 8)"><g><rect class="background" style="stroke: none"/><text y="-10.1" style=""><tspan class="text-outer-tspan" x="0" y="-0.1em" dy="1.1em"><tspan font-style="normal" class="text-inner-tspan" font-weight="normal">Windows</tspan><tspan font-style="normal" class="text-inner-tspan" font-weight="normal"> rules</tspan></tspan></text></g></g></g></g><g class="edgePaths"><path d="M264,462.125L268.583,462.125C273.167,462.125,282.333,462.125,290.833,462.125C299.333,462.125,307.167,462.125,311.083,462.125L315,462.125" id="L_IN_DEC_0" class="edge-thickness-normal edge-pattern-solid edge-thickness-normal edge-pattern-solid flowchart-link" style=";" data-edge="true" data-et="edge" data-id="L_IN_DEC_0" data-points="W3sieCI6MjY0LCJ5Ijo0NjIuMTI1fSx7IngiOjI5MS41LCJ5Ijo0NjIuMTI1fSx7IngiOjMxOSwieSI6NDYyLjEyNX1d" marker-end="url(#arch4_flowchart-v2-pointEnd)"/><path d="M463.651,425.625L486.792,374.896C509.934,324.167,556.217,222.708,583.942,171.979C611.667,121.25,620.833,121.25,630.44,121.25C640.047,121.25,650.094,121.25,655.117,121.25L660.141,121.25" id="L_DEC_B4625_0" class="edge-thickness-normal edge-pattern-solid edge-thickness-normal edge-pattern-solid flowchart-link" style=";" data-edge="true" data-et="edge" data-id="L_DEC_B4625_0" data-points="W3sieCI6NDYzLjY1MDUzMTcxOTgzODYsInkiOjQyNS42MjV9LHsieCI6NjAyLjUsInkiOjEyMS4yNX0seyJ4Ijo2MzAsInkiOjEyMS4yNX0seyJ4Ijo2NjQuMTQwNjI1LCJ5IjoxMjEuMjV9XQ==" marker-end="url(#arch4_flowchart-v2-pointEnd)"/><path d="M812.219,121.25L817.909,121.25C823.599,121.25,834.979,121.25,844.586,121.25C854.193,121.25,862.026,121.25,865.943,121.25L869.859,121.25" id="L_B4625_SEEDW_0" class="edge-thickness-normal edge-pattern-solid edge-thickness-normal edge-pattern-solid flowchart-link" style=";" data-edge="true" data-et="edge" data-id="L_B4625_SEEDW_0" data-points="W3sieCI6ODEyLjIxODc1LCJ5IjoxMjEuMjV9LHsieCI6ODQ2LjM1OTM3NSwieSI6MTIxLjI1fSx7IngiOjg3My44NTkzNzUsInkiOjEyMS4yNX1d" marker-end="url(#arch4_flowchart-v2-pointEnd)"/><path d="M1129.859,91.719L1134.443,90.662C1139.026,89.605,1148.193,87.49,1156.693,86.432C1165.193,85.375,1173.026,85.375,1176.943,85.375L1180.859,85.375" id="L_SEEDW_CORRW_0" class="edge-thickness-normal edge-pattern-solid edge-thickness-normal edge-pattern-solid flowchart-link" style=";" data-edge="true" data-et="edge" data-id="L_SEEDW_CORRW_0" data-points="W3sieCI6MTEyOS44NTkzNzUsInkiOjkxLjcxOTQ1MzM3NjIwNTc5fSx7IngiOjExNTcuMzU5Mzc1LCJ5Ijo4NS4zNzV9LHsieCI6MTE4NC44NTkzNzUsInkiOjg1LjM3NX1d" marker-end="url(#arch4_flowchart-v2-pointEnd)"/><path d="M473.647,425.625L495.122,396.208C516.598,366.792,559.549,307.958,585.608,278.542C611.667,249.125,620.833,249.125,643.447,249.125C666.06,249.125,702.12,249.125,738.18,249.125C774.24,249.125,810.299,249.125,833.839,249.125C857.378,249.125,868.396,249.125,873.905,249.125L879.414,249.125" id="L_DEC_BWUSER_0" class="edge-thickness-normal edge-pattern-solid edge-thickness-normal edge-pattern-solid flowchart-link" style=";" data-edge="true" data-et="edge" data-id="L_DEC_BWUSER_0" data-points="W3sieCI6NDczLjY0NjcxMzYxNTAyMzUsInkiOjQyNS42MjV9LHsieCI6NjAyLjUsInkiOjI0OS4xMjV9LHsieCI6NjMwLCJ5IjoyNDkuMTI1fSx7IngiOjczOC4xNzk2ODc1LCJ5IjoyNDkuMTI1fSx7IngiOjg0Ni4zNTkzNzUsInkiOjI0OS4xMjV9LHsieCI6ODgzLjQxNDA2MjUsInkiOjI0OS4xMjV9XQ==" marker-end="url(#arch4_flowchart-v2-pointEnd)"/><path d="M1120.305,249.125L1126.48,249.125C1132.656,249.125,1145.008,249.125,1159.569,249.125C1174.13,249.125,1190.901,249.125,1199.286,249.125L1207.672,249.125" id="L_BWUSER_RWUSER_0" class="edge-thickness-normal edge-pattern-solid edge-thickness-normal edge-pattern-solid flowchart-link" style=";" data-edge="true" data-et="edge" data-id="L_BWUSER_RWUSER_0" data-points="W3sieCI6MTEyMC4zMDQ2ODc1LCJ5IjoyNDkuMTI1fSx7IngiOjExNTcuMzU5Mzc1LCJ5IjoyNDkuMTI1fSx7IngiOjEyMTEuNjcxODc1LCJ5IjoyNDkuMTI1fV0=" marker-end="url(#arch4_flowchart-v2-pointEnd)"/><path d="M497.676,425.625L515.147,413.042C532.618,400.458,567.559,375.292,589.613,362.708C611.667,350.125,620.833,350.125,643.447,350.125C666.06,350.125,702.12,350.125,738.18,350.125C774.24,350.125,810.299,350.125,841.24,350.125C872.18,350.125,898,350.125,910.91,350.125L923.82,350.125" id="L_DEC_BWTASK_0" class="edge-thickness-normal edge-pattern-solid edge-thickness-normal edge-pattern-solid flowchart-link" style=";" data-edge="true" data-et="edge" data-id="L_DEC_BWTASK_0" data-points="W3sieCI6NDk3LjY3NjMzOTI4NTcxNDMsInkiOjQyNS42MjV9LHsieCI6NjAyLjUsInkiOjM1MC4xMjV9LHsieCI6NjMwLCJ5IjozNTAuMTI1fSx7IngiOjczOC4xNzk2ODc1LCJ5IjozNTAuMTI1fSx7IngiOjg0Ni4zNTkzNzUsInkiOjM1MC4xMjV9LHsieCI6OTI3LjgyMDMxMjUsInkiOjM1MC4xMjV9XQ==" marker-end="url(#arch4_flowchart-v2-pointEnd)"/><path d="M1075.898,350.125L1089.475,350.125C1103.052,350.125,1130.206,350.125,1155.819,350.125C1181.432,350.125,1205.505,350.125,1217.542,350.125L1229.578,350.125" id="L_BWTASK_RWTASK_0" class="edge-thickness-normal edge-pattern-solid edge-thickness-normal edge-pattern-solid flowchart-link" style=";" data-edge="true" data-et="edge" data-id="L_BWTASK_RWTASK_0" data-points="W3sieCI6MTA3NS44OTg0Mzc1LCJ5IjozNTAuMTI1fSx7IngiOjExNTcuMzU5Mzc1LCJ5IjozNTAuMTI1fSx7IngiOjEyMzMuNTc4MTI1LCJ5IjozNTAuMTI1fV0=" marker-end="url(#arch4_flowchart-v2-pointEnd)"/><path d="M521.558,498.625L535.049,505.229C548.539,511.833,575.519,525.042,593.593,531.646C611.667,538.25,620.833,538.25,629.333,538.25C637.833,538.25,645.667,538.25,649.583,538.25L653.5,538.25" id="L_DEC_BSSH_0" class="edge-thickness-normal edge-pattern-solid edge-thickness-normal edge-pattern-solid flowchart-link" style=";" data-edge="true" data-et="edge" data-id="L_DEC_BSSH_0" data-points="W3sieCI6NTIxLjU1ODI5MjI4MjQzMDIsInkiOjQ5OC42MjV9LHsieCI6NjAyLjUsInkiOjUzOC4yNX0seyJ4Ijo2MzAsInkiOjUzOC4yNX0seyJ4Ijo2NTcuNSwieSI6NTM4LjI1fV0=" marker-end="url(#arch4_flowchart-v2-pointEnd)"/><path d="M818.859,538.25L823.443,538.25C828.026,538.25,837.193,538.25,845.693,538.25C854.193,538.25,862.026,538.25,865.943,538.25L869.859,538.25" id="L_BSSH_SEEDL_0" class="edge-thickness-normal edge-pattern-solid edge-thickness-normal edge-pattern-solid flowchart-link" style=";" data-edge="true" data-et="edge" data-id="L_BSSH_SEEDL_0" data-points="W3sieCI6ODE4Ljg1OTM3NSwieSI6NTM4LjI1fSx7IngiOjg0Ni4zNTkzNzUsInkiOjUzOC4yNX0seyJ4Ijo4NzMuODU5Mzc1LCJ5Ijo1MzguMjV9XQ==" marker-end="url(#arch4_flowchart-v2-pointEnd)"/><path d="M1129.859,508.719L1134.443,507.662C1139.026,506.605,1148.193,504.49,1159.522,503.432C1170.852,502.375,1184.344,502.375,1191.09,502.375L1197.836,502.375" id="L_SEEDL_CORRL_0" class="edge-thickness-normal edge-pattern-solid edge-thickness-normal edge-pattern-solid flowchart-link" style=";" data-edge="true" data-et="edge" data-id="L_SEEDL_CORRL_0" data-points="W3sieCI6MTEyOS44NTkzNzUsInkiOjUwOC43MTk0NTMzNzYyMDU3Nn0seyJ4IjoxMTU3LjM1OTM3NSwieSI6NTAyLjM3NX0seyJ4IjoxMjAxLjgzNTkzNzUsInkiOjUwMi4zNzV9XQ==" marker-end="url(#arch4_flowchart-v2-pointEnd)"/><path d="M476.446,498.625L497.455,524.667C518.464,550.708,560.482,602.792,586.074,628.833C611.667,654.875,620.833,654.875,643.447,654.875C666.06,654.875,702.12,654.875,738.18,654.875C774.24,654.875,810.299,654.875,839.203,654.875C868.107,654.875,889.854,654.875,900.728,654.875L911.602,654.875" id="L_DEC_BLUSER_0" class="edge-thickness-normal edge-pattern-solid edge-thickness-normal edge-pattern-solid flowchart-link" style=";" data-edge="true" data-et="edge" data-id="L_DEC_BLUSER_0" data-points="W3sieCI6NDc2LjQ0NjE3MzgwMDI1OTQzLCJ5Ijo0OTguNjI1fSx7IngiOjYwMi41LCJ5Ijo2NTQuODc1fSx7IngiOjYzMCwieSI6NjU0Ljg3NX0seyJ4Ijo3MzguMTc5Njg3NSwieSI6NjU0Ljg3NX0seyJ4Ijo4NDYuMzU5Mzc1LCJ5Ijo2NTQuODc1fSx7IngiOjkxNS42MDE1NjI1LCJ5Ijo2NTQuODc1fV0=" marker-end="url(#arch4_flowchart-v2-pointEnd)"/><path d="M1088.117,654.875L1099.658,654.875C1111.198,654.875,1134.279,654.875,1157.855,654.875C1181.432,654.875,1205.505,654.875,1217.542,654.875L1229.578,654.875" id="L_BLUSER_RLUSER_0" class="edge-thickness-normal edge-pattern-solid edge-thickness-normal edge-pattern-solid flowchart-link" style=";" data-edge="true" data-et="edge" data-id="L_BLUSER_RLUSER_0" data-points="W3sieCI6MTA4OC4xMTcxODc1LCJ5Ijo2NTQuODc1fSx7IngiOjExNTcuMzU5Mzc1LCJ5Ijo2NTQuODc1fSx7IngiOjEyMzMuNTc4MTI1LCJ5Ijo2NTQuODc1fV0=" marker-end="url(#arch4_flowchart-v2-pointEnd)"/><path d="M466.322,498.625L489.018,541.5C511.714,584.375,557.107,670.125,584.387,713C611.667,755.875,620.833,755.875,643.447,755.875C666.06,755.875,702.12,755.875,738.18,755.875C774.24,755.875,810.299,755.875,836.596,755.875C862.893,755.875,879.427,755.875,887.694,755.875L895.961,755.875" id="L_DEC_BFIM_0" class="edge-thickness-normal edge-pattern-solid edge-thickness-normal edge-pattern-solid flowchart-link" style=";" data-edge="true" data-et="edge" data-id="L_DEC_BFIM_0" data-points="W3sieCI6NDY2LjMyMTcwMjEyNzY1OTYsInkiOjQ5OC42MjV9LHsieCI6NjAyLjUsInkiOjc1NS44NzV9LHsieCI6NjMwLCJ5Ijo3NTUuODc1fSx7IngiOjczOC4xNzk2ODc1LCJ5Ijo3NTUuODc1fSx7IngiOjg0Ni4zNTkzNzUsInkiOjc1NS44NzV9LHsieCI6ODk5Ljk2MDkzNzUsInkiOjc1NS44NzV9XQ==" marker-end="url(#arch4_flowchart-v2-pointEnd)"/><path d="M1103.758,755.875L1112.691,755.875C1121.625,755.875,1139.492,755.875,1160.146,755.875C1180.799,755.875,1204.24,755.875,1215.96,755.875L1227.68,755.875" id="L_BFIM_RLFIM_0" class="edge-thickness-normal edge-pattern-solid edge-thickness-normal edge-pattern-solid flowchart-link" style=";" data-edge="true" data-et="edge" data-id="L_BFIM_RLFIM_0" data-points="W3sieCI6MTEwMy43NTc4MTI1LCJ5Ijo3NTUuODc1fSx7IngiOjExNTcuMzU5Mzc1LCJ5Ijo3NTUuODc1fSx7IngiOjEyMzEuNjc5Njg3NSwieSI6NzU1Ljg3NX1d" marker-end="url(#arch4_flowchart-v2-pointEnd)"/><path d="M1436.516,85.375L1441.099,85.375C1445.682,85.375,1454.849,85.375,1479.211,85.375C1503.573,85.375,1543.13,85.375,1597.386,135.555C1651.641,185.734,1720.594,286.094,1755.071,336.273L1789.548,386.453" id="L_CORRW_MAP_0" class="edge-thickness-normal edge-pattern-solid edge-thickness-normal edge-pattern-solid flowchart-link" style=";" data-edge="true" data-et="edge" data-id="L_CORRW_MAP_0" data-points="W3sieCI6MTQzNi41MTU2MjUsInkiOjg1LjM3NX0seyJ4IjoxNDY0LjAxNTYyNSwieSI6ODUuMzc1fSx7IngiOjE1ODIuNjg3NSwieSI6ODUuMzc1fSx7IngiOjE3OTEuODEyNzY5Mjk3NzYzMiwieSI6Mzg5Ljc1fV0=" marker-end="url(#arch4_flowchart-v2-pointEnd)"/><path d="M1419.539,502.375L1426.952,502.375C1434.365,502.375,1449.19,502.375,1476.382,502.375C1503.573,502.375,1543.13,502.375,1582.593,495.977C1622.056,489.579,1661.424,476.783,1681.108,470.385L1700.792,463.986" id="L_CORRL_MAP_0" class="edge-thickness-normal edge-pattern-solid edge-thickness-normal edge-pattern-solid flowchart-link" style=";" data-edge="true" data-et="edge" data-id="L_CORRL_MAP_0" data-points="W3sieCI6MTQxOS41MzkwNjI1LCJ5Ijo1MDIuMzc1fSx7IngiOjE0NjQuMDE1NjI1LCJ5Ijo1MDIuMzc1fSx7IngiOjE1ODIuNjg3NSwieSI6NTAyLjM3NX0seyJ4IjoxNzA0LjU5NjE4NzM5NzM3MjcsInkiOjQ2Mi43NX1d" marker-end="url(#arch4_flowchart-v2-pointEnd)"/><path d="M1409.703,249.125L1418.755,249.125C1427.807,249.125,1445.911,249.125,1474.742,249.125C1503.573,249.125,1543.13,249.125,1593.367,272.16C1643.604,295.196,1704.521,341.266,1734.98,364.302L1765.438,387.337" id="L_RWUSER_MAP_0" class="edge-thickness-normal edge-pattern-solid edge-thickness-normal edge-pattern-solid flowchart-link" style=";" data-edge="true" data-et="edge" data-id="L_RWUSER_MAP_0" data-points="W3sieCI6MTQwOS43MDMxMjUsInkiOjI0OS4xMjV9LHsieCI6MTQ2NC4wMTU2MjUsInkiOjI0OS4xMjV9LHsieCI6MTU4Mi42ODc1LCJ5IjoyNDkuMTI1fSx7IngiOjE3NjguNjI4NTgzNzE1NTk2MywieSI6Mzg5Ljc1fV0=" marker-end="url(#arch4_flowchart-v2-pointEnd)"/><path d="M1387.797,654.875L1400.5,654.875C1413.203,654.875,1438.609,654.875,1471.091,654.875C1503.573,654.875,1543.13,654.875,1595.234,623.32C1647.338,591.765,1711.988,528.654,1744.313,497.099L1776.638,465.544" id="L_RLUSER_MAP_0" class="edge-thickness-normal edge-pattern-solid edge-thickness-normal edge-pattern-solid flowchart-link" style=";" data-edge="true" data-et="edge" data-id="L_RLUSER_MAP_0" data-points="W3sieCI6MTM4Ny43OTY4NzUsInkiOjY1NC44NzV9LHsieCI6MTQ2NC4wMTU2MjUsInkiOjY1NC44NzV9LHsieCI6MTU4Mi42ODc1LCJ5Ijo2NTQuODc1fSx7IngiOjE3NzkuNTAwMDc2ODg2Mjc2NywieSI6NDYyLjc1fV0=" marker-end="url(#arch4_flowchart-v2-pointEnd)"/><path d="M1387.797,350.125L1400.5,350.125C1413.203,350.125,1438.609,350.125,1471.091,350.125C1503.573,350.125,1543.13,350.125,1582.593,356.523C1622.056,362.921,1661.424,375.717,1681.108,382.115L1700.792,388.514" id="L_RWTASK_MAP_0" class="edge-thickness-normal edge-pattern-solid edge-thickness-normal edge-pattern-solid flowchart-link" style=";" data-edge="true" data-et="edge" data-id="L_RWTASK_MAP_0" data-points="W3sieCI6MTM4Ny43OTY4NzUsInkiOjM1MC4xMjV9LHsieCI6MTQ2NC4wMTU2MjUsInkiOjM1MC4xMjV9LHsieCI6MTU4Mi42ODc1LCJ5IjozNTAuMTI1fSx7IngiOjE3MDQuNTk2MTg3Mzk3MzcyNywieSI6Mzg5Ljc1fV0=" marker-end="url(#arch4_flowchart-v2-pointEnd)"/><path d="M1389.695,755.875L1402.082,755.875C1414.469,755.875,1439.242,755.875,1471.408,755.875C1503.573,755.875,1543.13,755.875,1597.234,707.564C1651.338,659.254,1719.989,562.632,1754.315,514.321L1788.64,466.011" id="L_RLFIM_MAP_0" class="edge-thickness-normal edge-pattern-solid edge-thickness-normal edge-pattern-solid flowchart-link" style=";" data-edge="true" data-et="edge" data-id="L_RLFIM_MAP_0" data-points="W3sieCI6MTM4OS42OTUzMTI1LCJ5Ijo3NTUuODc1fSx7IngiOjE0NjQuMDE1NjI1LCJ5Ijo3NTUuODc1fSx7IngiOjE1ODIuNjg3NSwieSI6NzU1Ljg3NX0seyJ4IjoxNzkwLjk1Njg2OTc4NTc0MTQsInkiOjQ2Mi43NX1d" marker-end="url(#arch4_flowchart-v2-pointEnd)"/><path d="M1129.859,150.781L1134.443,151.838C1139.026,152.895,1148.193,155.01,1178.331,156.068C1208.469,157.125,1259.578,157.125,1310.688,157.125C1361.797,157.125,1412.906,157.125,1458.24,157.125C1503.573,157.125,1543.13,157.125,1601.943,157.125C1660.755,157.125,1738.823,157.125,1801.695,157.125C1864.568,157.125,1912.245,157.125,1952.837,190.768C1993.43,224.411,2026.937,291.697,2043.691,325.34L2060.445,358.984" id="L_SEEDW_ALOG_0" class="edge-thickness-normal edge-pattern-solid edge-thickness-normal edge-pattern-solid flowchart-link" style=";" data-edge="true" data-et="edge" data-id="L_SEEDW_ALOG_0" data-points="W3sieCI6MTEyOS44NTkzNzUsInkiOjE1MC43ODA1NDY2MjM3OTQyfSx7IngiOjExNTcuMzU5Mzc1LCJ5IjoxNTcuMTI1fSx7IngiOjEzMTAuNjg3NSwieSI6MTU3LjEyNX0seyJ4IjoxNDY0LjAxNTYyNSwieSI6MTU3LjEyNX0seyJ4IjoxNTgyLjY4NzUsInkiOjE1Ny4xMjV9LHsieCI6MTgxNi44OTA2MjUsInkiOjE1Ny4xMjV9LHsieCI6MTk1OS45MjE4NzUsInkiOjE1Ny4xMjV9LHsieCI6MjA2Mi4yMjgyNzc3MjExMzAzLCJ5IjozNjIuNTY0MTUyMzUwMTQzMTZ9XQ==" marker-end="url(#arch4_flowchart-v2-pointEnd)"/><path d="M1129.859,567.781L1134.443,568.838C1139.026,569.895,1148.193,572.01,1178.331,573.068C1208.469,574.125,1259.578,574.125,1310.688,574.125C1361.797,574.125,1412.906,574.125,1458.24,574.125C1503.573,574.125,1543.13,574.125,1601.943,574.125C1660.755,574.125,1738.823,574.125,1801.695,574.125C1864.568,574.125,1912.245,574.125,1948.294,560.286C1984.343,546.447,2008.764,518.768,2020.974,504.929L2033.185,491.09" id="L_SEEDL_ALOG_0" class="edge-thickness-normal edge-pattern-solid edge-thickness-normal edge-pattern-solid flowchart-link" style=";" data-edge="true" data-et="edge" data-id="L_SEEDL_ALOG_0" data-points="W3sieCI6MTEyOS44NTkzNzUsInkiOjU2Ny43ODA1NDY2MjM3OTQyfSx7IngiOjExNTcuMzU5Mzc1LCJ5Ijo1NzQuMTI1fSx7IngiOjEzMTAuNjg3NSwieSI6NTc0LjEyNX0seyJ4IjoxNDY0LjAxNTYyNSwieSI6NTc0LjEyNX0seyJ4IjoxNTgyLjY4NzUsInkiOjU3NC4xMjV9LHsieCI6MTgxNi44OTA2MjUsInkiOjU3NC4xMjV9LHsieCI6MTk1OS45MjE4NzUsInkiOjU3NC4xMjV9LHsieCI6MjAzNS44MzExNjA3NjM4MTU0LCJ5Ijo0ODguMDkwODM1OTU1OTM5MX1d" marker-end="url(#arch4_flowchart-v2-pointEnd)"/><path d="M1932.422,426.25L1937.005,426.25C1941.589,426.25,1950.755,426.25,1959.255,426.25C1967.755,426.25,1975.589,426.25,1979.505,426.25L1983.422,426.25" id="L_MAP_ALOG_0" class="edge-thickness-normal edge-pattern-solid edge-thickness-normal edge-pattern-solid flowchart-link" style=";" data-edge="true" data-et="edge" data-id="L_MAP_ALOG_0" data-points="W3sieCI6MTkzMi40MjE4NzUsInkiOjQyNi4yNX0seyJ4IjoxOTU5LjkyMTg3NSwieSI6NDI2LjI1fSx7IngiOjE5ODcuNDIxODc1LCJ5Ijo0MjYuMjV9XQ==" marker-end="url(#arch4_flowchart-v2-pointEnd)"/><path d="M2201.422,426.25L2206.005,426.25C2210.589,426.25,2219.755,426.25,2228.255,426.25C2236.755,426.25,2244.589,426.25,2248.505,426.25L2252.422,426.25" id="L_ALOG_FB_0" class="edge-thickness-normal edge-pattern-solid edge-thickness-normal edge-pattern-solid flowchart-link" style=";" data-edge="true" data-et="edge" data-id="L_ALOG_FB_0" data-points="W3sieCI6MjIwMS40MjE4NzUsInkiOjQyNi4yNX0seyJ4IjoyMjI4LjkyMTg3NSwieSI6NDI2LjI1fSx7IngiOjIyNTYuNDIxODc1LCJ5Ijo0MjYuMjV9XQ==" marker-end="url(#arch4_flowchart-v2-pointEnd)"/><path d="M2467.781,426.25L2472.365,426.25C2476.948,426.25,2486.115,426.25,2494.615,426.25C2503.115,426.25,2510.948,426.25,2514.865,426.25L2518.781,426.25" id="L_FB_INDEX_0" class="edge-thickness-normal edge-pattern-solid edge-thickness-normal edge-pattern-solid flowchart-link" style=";" data-edge="true" data-et="edge" data-id="L_FB_INDEX_0" data-points="W3sieCI6MjQ2Ny43ODEyNSwieSI6NDI2LjI1fSx7IngiOjI0OTUuMjgxMjUsInkiOjQyNi4yNX0seyJ4IjoyNTIyLjc4MTI1LCJ5Ijo0MjYuMjV9XQ==" marker-end="url(#arch4_flowchart-v2-pointEnd)"/><path d="M2682.875,426.25L2687.458,426.25C2692.042,426.25,2701.208,426.25,2709.708,426.25C2718.208,426.25,2726.042,426.25,2729.958,426.25L2733.875,426.25" id="L_INDEX_VIEW_0" class="edge-thickness-normal edge-pattern-solid edge-thickness-normal edge-pattern-solid flowchart-link" style=";" data-edge="true" data-et="edge" data-id="L_INDEX_VIEW_0" data-points="W3sieCI6MjY4Mi44NzUsInkiOjQyNi4yNX0seyJ4IjoyNzEwLjM3NSwieSI6NDI2LjI1fSx7IngiOjI3MzcuODc1LCJ5Ijo0MjYuMjV9XQ==" marker-end="url(#arch4_flowchart-v2-pointEnd)"/></g><g class="edgeLabels"><g><rect class="background" style="stroke: none"/></g><g><rect class="background" style="stroke: none"/></g><g><rect class="background" style="stroke: none"/></g><g><rect class="background" style="stroke: none"/></g><g><rect class="background" style="stroke: none"/></g><g><rect class="background" style="stroke: none"/></g><g><rect class="background" style="stroke: none"/></g><g><rect class="background" style="stroke: none"/></g><g><rect class="background" style="stroke: none"/></g><g><rect class="background" style="stroke: none"/></g><g><rect class="background" style="stroke: none"/></g><g><rect class="background" style="stroke: none"/></g><g><rect class="background" style="stroke: none"/></g><g><rect class="background" style="stroke: none"/></g><g><rect class="background" style="stroke: none"/></g><g><rect class="background" style="stroke: none"/></g><g><rect class="background" style="stroke: none"/></g><g><rect class="background" style="stroke: none"/></g><g><rect class="background" style="stroke: none"/></g><g class="edgeLabel"><g class="label" data-id="L_IN_DEC_0" transform="translate(0, 0)"><text y="-10.1"><tspan class="text-outer-tspan" x="0" y="-0.1em" dy="1.1em"/></text></g></g><g class="edgeLabel"><g class="label" data-id="L_DEC_B4625_0" transform="translate(0, 0)"><text y="-10.1"><tspan class="text-outer-tspan" x="0" y="-0.1em" dy="1.1em"/></text></g></g><g class="edgeLabel"><g class="label" data-id="L_B4625_SEEDW_0" transform="translate(0, 0)"><text y="-10.1"><tspan class="text-outer-tspan" x="0" y="-0.1em" dy="1.1em"/></text></g></g><g class="edgeLabel"><g class="label" data-id="L_SEEDW_CORRW_0" transform="translate(0, 0)"><text y="-10.1"><tspan class="text-outer-tspan" x="0" y="-0.1em" dy="1.1em"/></text></g></g><g class="edgeLabel"><g class="label" data-id="L_DEC_BWUSER_0" transform="translate(0, 0)"><text y="-10.1"><tspan class="text-outer-tspan" x="0" y="-0.1em" dy="1.1em"/></text></g></g><g class="edgeLabel"><g class="label" data-id="L_BWUSER_RWUSER_0" transform="translate(0, 0)"><text y="-10.1"><tspan class="text-outer-tspan" x="0" y="-0.1em" dy="1.1em"/></text></g></g><g class="edgeLabel"><g class="label" data-id="L_DEC_BWTASK_0" transform="translate(0, 0)"><text y="-10.1"><tspan class="text-outer-tspan" x="0" y="-0.1em" dy="1.1em"/></text></g></g><g class="edgeLabel"><g class="label" data-id="L_BWTASK_RWTASK_0" transform="translate(0, 0)"><text y="-10.1"><tspan class="text-outer-tspan" x="0" y="-0.1em" dy="1.1em"/></text></g></g><g class="edgeLabel"><g class="label" data-id="L_DEC_BSSH_0" transform="translate(0, 0)"><text y="-10.1"><tspan class="text-outer-tspan" x="0" y="-0.1em" dy="1.1em"/></text></g></g><g class="edgeLabel"><g class="label" data-id="L_BSSH_SEEDL_0" transform="translate(0, 0)"><text y="-10.1"><tspan class="text-outer-tspan" x="0" y="-0.1em" dy="1.1em"/></text></g></g><g class="edgeLabel"><g class="label" data-id="L_SEEDL_CORRL_0" transform="translate(0, 0)"><text y="-10.1"><tspan class="text-outer-tspan" x="0" y="-0.1em" dy="1.1em"/></text></g></g><g class="edgeLabel"><g class="label" data-id="L_DEC_BLUSER_0" transform="translate(0, 0)"><text y="-10.1"><tspan class="text-outer-tspan" x="0" y="-0.1em" dy="1.1em"/></text></g></g><g class="edgeLabel"><g class="label" data-id="L_BLUSER_RLUSER_0" transform="translate(0, 0)"><text y="-10.1"><tspan class="text-outer-tspan" x="0" y="-0.1em" dy="1.1em"/></text></g></g><g class="edgeLabel"><g class="label" data-id="L_DEC_BFIM_0" transform="translate(0, 0)"><text y="-10.1"><tspan class="text-outer-tspan" x="0" y="-0.1em" dy="1.1em"/></text></g></g><g class="edgeLabel"><g class="label" data-id="L_BFIM_RLFIM_0" transform="translate(0, 0)"><text y="-10.1"><tspan class="text-outer-tspan" x="0" y="-0.1em" dy="1.1em"/></text></g></g><g class="edgeLabel" transform="translate(1582.6875, 85.375)"><g class="label" data-id="L_CORRW_MAP_0" transform="translate(-35.859375, -12)"><g><rect class="background" style="" x="-2" y="-3" width="71.71875" height="24"/><text y="-10.1" style=""><tspan class="text-outer-tspan" x="0" y="-0.1em" dy="1.1em"><tspan font-style="normal" class="text-inner-tspan" font-weight="normal">T1110.001</tspan></tspan></text></g></g></g><g class="edgeLabel" transform="translate(1582.6875, 502.375)"><g class="label" data-id="L_CORRL_MAP_0" transform="translate(-35.859375, -12)"><g><rect class="background" style="" x="-2" y="-3" width="71.71875" height="24"/><text y="-10.1" style=""><tspan class="text-outer-tspan" x="0" y="-0.1em" dy="1.1em"><tspan font-style="normal" class="text-inner-tspan" font-weight="normal">T1110.001</tspan></tspan></text></g></g></g><g class="edgeLabel" transform="translate(1582.6875, 249.125)"><g class="label" data-id="L_RWUSER_MAP_0" transform="translate(-35.859375, -12)"><g><rect class="background" style="" x="-2" y="-3" width="71.71875" height="24"/><text y="-10.1" style=""><tspan class="text-outer-tspan" x="0" y="-0.1em" dy="1.1em"><tspan font-style="normal" class="text-inner-tspan" font-weight="normal">T1136.001</tspan></tspan></text></g></g></g><g class="edgeLabel" transform="translate(1582.6875, 654.875)"><g class="label" data-id="L_RLUSER_MAP_0" transform="translate(-35.859375, -12)"><g><rect class="background" style="" x="-2" y="-3" width="71.71875" height="24"/><text y="-10.1" style=""><tspan class="text-outer-tspan" x="0" y="-0.1em" dy="1.1em"><tspan font-style="normal" class="text-inner-tspan" font-weight="normal">T1136.001</tspan></tspan></text></g></g></g><g class="edgeLabel" transform="translate(1582.6875, 350.125)"><g class="label" data-id="L_RWTASK_MAP_0" transform="translate(-35.859375, -12)"><g><rect class="background" style="" x="-2" y="-3" width="71.71875" height="24"/><text y="-10.1" style=""><tspan class="text-outer-tspan" x="0" y="-0.1em" dy="1.1em"><tspan font-style="normal" class="text-inner-tspan" font-weight="normal">T1053.005</tspan></tspan></text></g></g></g><g class="edgeLabel" transform="translate(1582.6875, 755.875)"><g class="label" data-id="L_RLFIM_MAP_0" transform="translate(-35.859375, -12)"><g><rect class="background" style="" x="-2" y="-3" width="71.71875" height="24"/><text y="-10.1" style=""><tspan class="text-outer-tspan" x="0" y="-0.1em" dy="1.1em"><tspan font-style="normal" class="text-inner-tspan" font-weight="normal">T1053.003</tspan></tspan></text></g></g></g><g class="edgeLabel" transform="translate(1582.6875, 157.125)"><g class="label" data-id="L_SEEDW_ALOG_0" transform="translate(-91.171875, -12)"><g><rect class="background" style="" x="-2" y="-3" width="182.34375" height="24"/><text y="-10.1" style=""><tspan class="text-outer-tspan" x="0" y="-0.1em" dy="1.1em"><tspan font-style="normal" class="text-inner-tspan" font-weight="normal">below</tspan><tspan font-style="normal" class="text-inner-tspan" font-weight="normal"> threshold:</tspan><tspan font-style="normal" class="text-inner-tspan" font-weight="normal"> base</tspan><tspan font-style="normal" class="text-inner-tspan" font-weight="normal"> alert</tspan></tspan></text></g></g></g><g class="edgeLabel" transform="translate(1582.6875, 574.125)"><g class="label" data-id="L_SEEDL_ALOG_0" transform="translate(-91.171875, -12)"><g><rect class="background" style="" x="-2" y="-3" width="182.34375" height="24"/><text y="-10.1" style=""><tspan class="text-outer-tspan" x="0" y="-0.1em" dy="1.1em"><tspan font-style="normal" class="text-inner-tspan" font-weight="normal">below</tspan><tspan font-style="normal" class="text-inner-tspan" font-weight="normal"> threshold:</tspan><tspan font-style="normal" class="text-inner-tspan" font-weight="normal"> base</tspan><tspan font-style="normal" class="text-inner-tspan" font-weight="normal"> alert</tspan></tspan></text></g></g></g><g class="edgeLabel"><g class="label" data-id="L_MAP_ALOG_0" transform="translate(0, 0)"><text y="-10.1"><tspan class="text-outer-tspan" x="0" y="-0.1em" dy="1.1em"/></text></g></g><g class="edgeLabel"><g class="label" data-id="L_ALOG_FB_0" transform="translate(0, 0)"><text y="-10.1"><tspan class="text-outer-tspan" x="0" y="-0.1em" dy="1.1em"/></text></g></g><g class="edgeLabel"><g class="label" data-id="L_FB_INDEX_0" transform="translate(0, 0)"><text y="-10.1"><tspan class="text-outer-tspan" x="0" y="-0.1em" dy="1.1em"/></text></g></g><g class="edgeLabel"><g class="label" data-id="L_INDEX_VIEW_0" transform="translate(0, 0)"><text y="-10.1"><tspan class="text-outer-tspan" x="0" y="-0.1em" dy="1.1em"/></text></g></g></g><g class="nodes"><g class="node default" id="flowchart-IN-0" transform="translate(136, 462.125)"><rect class="basic label-container" style="" x="-128" y="-36.5" width="256" height="73"/><g class="label" style="" transform="translate(-100, -22.5)"><rect/><foreignObject width="200" height="45"><div xmlns="http://www.w3.org/1999/xhtml" style="display: table; white-space: break-spaces; line-height: 1.5; max-width: 200px; text-align: center; width: 200px;"><span class="nodeLabel"><p>Authenticated agent event stream</p></span></div></foreignObject></g></g><g class="node default" id="flowchart-DEC-1" transform="translate(447, 462.125)"><rect class="basic label-container" style="" x="-128" y="-36.5" width="256" height="73"/><g class="label" style="" transform="translate(-100, -22.5)"><rect/><foreignObject width="200" height="45"><div xmlns="http://www.w3.org/1999/xhtml" style="display: table; white-space: break-spaces; line-height: 1.5; max-width: 200px; text-align: center; width: 200px;"><span class="nodeLabel"><p>Wazuh decoder and rule pipeline</p></span></div></foreignObject></g></g><g class="node default" id="flowchart-B4625-2" transform="translate(738.1796875, 121.25)"><rect class="basic label-container" style="" x="-74.0390625" y="-36.5" width="148.078125" height="73"/><g class="label" style="" transform="translate(-46.0390625, -22.5)"><rect/><foreignObject width="92.078125" height="45"><div xmlns="http://www.w3.org/1999/xhtml" style="display: table-cell; white-space: nowrap; line-height: 1.5; max-width: 200px; text-align: center;"><span class="nodeLabel"><p>Vendor 60122<br />Event 4625</p></span></div></foreignObject></g></g><g class="node default" id="flowchart-SEEDW-3" transform="translate(1001.859375, 121.25)"><rect class="basic label-container" style="" x="-128" y="-59" width="256" height="118"/><g class="label" style="" transform="translate(-100, -45)"><rect/><foreignObject width="200" height="90"><div xmlns="http://www.w3.org/1999/xhtml" style="display: table; white-space: break-spaces; line-height: 1.5; max-width: 200px; text-align: center; width: 200px;"><span class="nodeLabel"><p>100100, level 3<br />Bad-password subStatus 0xc000006a<br />Nonempty target account</p></span></div></foreignObject></g></g><g class="node default" id="flowchart-CORRW-4" transform="translate(1310.6875, 85.375)"><rect class="basic label-container" style="" x="-125.828125" y="-47.75" width="251.65625" height="95.5"/><g class="label" style="" transform="translate(-97.828125, -33.75)"><rect/><foreignObject width="195.65625" height="67.5"><div xmlns="http://www.w3.org/1999/xhtml" style="display: table-cell; white-space: nowrap; line-height: 1.5; max-width: 200px; text-align: center;"><span class="nodeLabel"><p>100101, level 10<br />Six in 120 seconds<br />Same target user and domain</p></span></div></foreignObject></g></g><g class="node default" id="flowchart-BWUSER-5" transform="translate(1001.859375, 249.125)"><rect class="basic label-container" style="" x="-118.4453125" y="-36.5" width="236.890625" height="73"/><g class="label" style="" transform="translate(-90.4453125, -22.5)"><rect/><foreignObject width="180.890625" height="45"><div xmlns="http://www.w3.org/1999/xhtml" style="display: table-cell; white-space: nowrap; line-height: 1.5; max-width: 200px; text-align: center;"><span class="nodeLabel"><p>Vendor 60109<br />Enabled or created account</p></span></div></foreignObject></g></g><g class="node default" id="flowchart-RWUSER-6" transform="translate(1310.6875, 249.125)"><rect class="basic label-container" style="" x="-99.015625" y="-36.5" width="198.03125" height="73"/><g class="label" style="" transform="translate(-71.015625, -22.5)"><rect/><foreignObject width="142.03125" height="45"><div xmlns="http://www.w3.org/1999/xhtml" style="display: table-cell; white-space: nowrap; line-height: 1.5; max-width: 200px; text-align: center;"><span class="nodeLabel"><p>100102, level 6<br />Filter event 4720 only</p></span></div></foreignObject></g></g><g class="node default" id="flowchart-BWTASK-7" transform="translate(1001.859375, 350.125)"><rect class="basic label-container" style="" x="-74.0390625" y="-36.5" width="148.078125" height="73"/><g class="label" style="" transform="translate(-46.0390625, -22.5)"><rect/><foreignObject width="92.078125" height="45"><div xmlns="http://www.w3.org/1999/xhtml" style="display: table-cell; white-space: nowrap; line-height: 1.5; max-width: 200px; text-align: center;"><span class="nodeLabel"><p>Vendor 60228<br />Task creation</p></span></div></foreignObject></g></g><g class="node default" id="flowchart-RWTASK-8" transform="translate(1310.6875, 350.125)"><rect class="basic label-container" style="" x="-77.109375" y="-25.25" width="154.21875" height="50.5"/><g class="label" style="" transform="translate(-49.109375, -11.25)"><rect/><foreignObject width="98.21875" height="22.5"><div xmlns="http://www.w3.org/1999/xhtml" style="display: table-cell; white-space: nowrap; line-height: 1.5; max-width: 200px; text-align: center;"><span class="nodeLabel"><p>100103, level 6</p></span></div></foreignObject></g></g><g class="node default" id="flowchart-BSSH-9" transform="translate(738.1796875, 538.25)"><rect class="basic label-container" style="" x="-80.6796875" y="-36.5" width="161.359375" height="73"/><g class="label" style="" transform="translate(-52.6796875, -22.5)"><rect/><foreignObject width="105.359375" height="45"><div xmlns="http://www.w3.org/1999/xhtml" style="display: table-cell; white-space: nowrap; line-height: 1.5; max-width: 200px; text-align: center;"><span class="nodeLabel"><p>Vendor 5760<br />Failed password</p></span></div></foreignObject></g></g><g class="node default" id="flowchart-SEEDL-10" transform="translate(1001.859375, 538.25)"><rect class="basic label-container" style="" x="-128" y="-47.75" width="256" height="95.5"/><g class="label" style="" transform="translate(-100, -33.75)"><rect/><foreignObject width="200" height="67.5"><div xmlns="http://www.w3.org/1999/xhtml" style="display: table; white-space: break-spaces; line-height: 1.5; max-width: 200px; text-align: center; width: 200px;"><span class="nodeLabel"><p>100110, level 3<br />Known account password failure</p></span></div></foreignObject></g></g><g class="node default" id="flowchart-CORRL-11" transform="translate(1310.6875, 502.375)"><rect class="basic label-container" style="" x="-108.8515625" y="-47.75" width="217.703125" height="95.5"/><g class="label" style="" transform="translate(-80.8515625, -33.75)"><rect/><foreignObject width="161.703125" height="67.5"><div xmlns="http://www.w3.org/1999/xhtml" style="display: table-cell; white-space: nowrap; line-height: 1.5; max-width: 200px; text-align: center;"><span class="nodeLabel"><p>100111, level 10<br />Six in 120 seconds<br />Same user and source IP</p></span></div></foreignObject></g></g><g class="node default" id="flowchart-BLUSER-12" transform="translate(1001.859375, 654.875)"><rect class="basic label-container" style="" x="-86.2578125" y="-36.5" width="172.515625" height="73"/><g class="label" style="" transform="translate(-58.2578125, -22.5)"><rect/><foreignObject width="116.515625" height="45"><div xmlns="http://www.w3.org/1999/xhtml" style="display: table-cell; white-space: nowrap; line-height: 1.5; max-width: 200px; text-align: center;"><span class="nodeLabel"><p>Vendor 5902<br />useradd new user</p></span></div></foreignObject></g></g><g class="node default" id="flowchart-RLUSER-13" transform="translate(1310.6875, 654.875)"><rect class="basic label-container" style="" x="-77.109375" y="-25.25" width="154.21875" height="50.5"/><g class="label" style="" transform="translate(-49.109375, -11.25)"><rect/><foreignObject width="98.21875" height="22.5"><div xmlns="http://www.w3.org/1999/xhtml" style="display: table-cell; white-space: nowrap; line-height: 1.5; max-width: 200px; text-align: center;"><span class="nodeLabel"><p>100112, level 6</p></span></div></foreignObject></g></g><g class="node default" id="flowchart-BFIM-14" transform="translate(1001.859375, 755.875)"><rect class="basic label-container" style="" x="-101.8984375" y="-36.5" width="203.796875" height="73"/><g class="label" style="" transform="translate(-73.8984375, -22.5)"><rect/><foreignObject width="147.796875" height="45"><div xmlns="http://www.w3.org/1999/xhtml" style="display: table-cell; white-space: nowrap; line-height: 1.5; max-width: 200px; text-align: center;"><span class="nodeLabel"><p>Vendor 550 or 554<br />File changed or added</p></span></div></foreignObject></g></g><g class="node default" id="flowchart-RLFIM-15" transform="translate(1310.6875, 755.875)"><rect class="basic label-container" style="" x="-79.0078125" y="-36.5" width="158.015625" height="73"/><g class="label" style="" transform="translate(-51.0078125, -22.5)"><rect/><foreignObject width="102.015625" height="45"><div xmlns="http://www.w3.org/1999/xhtml" style="display: table-cell; white-space: nowrap; line-height: 1.5; max-width: 200px; text-align: center;"><span class="nodeLabel"><p>100113, level 6<br />Cron-path filter</p></span></div></foreignObject></g></g><g class="node default" id="flowchart-MAP-16" transform="translate(1816.890625, 426.25)"><rect class="basic label-container" style="" x="-115.53125" y="-36.5" width="231.0625" height="73"/><g class="label" style="" transform="translate(-87.53125, -22.5)"><rect/><foreignObject width="175.0625" height="45"><div xmlns="http://www.w3.org/1999/xhtml" style="display: table-cell; white-space: nowrap; line-height: 1.5; max-width: 200px; text-align: center;"><span class="nodeLabel"><p>ATT&amp;CK enrichment<br />IDs, tactics and techniques</p></span></div></foreignObject></g></g><g class="node default store" id="flowchart-ALOG-17" transform="translate(2094.421875, 426.25)"><path d="M0,15.781710914454276 a107,15.781710914454276 0,0,0 214,0 a107,15.781710914454276 0,0,0 -214,0 l0,97.28171091445428 a107,15.781710914454276 0,0,0 214,0 l0,-97.28171091445428" class="basic label-container" style="fill:#e7f2eb !important;stroke:#487b60 !important" transform="translate(-107, -64.42256637168141)"/><g class="label" style="color:#173b29 !important" transform="translate(-100, -24.416666666666664)"><rect/><foreignObject width="200" height="67.5"><div style="color: rgb(23, 59, 41) !important; display: table; white-space: break-spaces; line-height: 1.5; max-width: 200px; text-align: center; width: 200px;" xmlns="http://www.w3.org/1999/xhtml"><span style="color:#173b29 !important" class="nodeLabel"><p>Manager alerts.json<br />Timestamp, agent, rule, decoded fields</p></span></div></foreignObject></g></g><g class="node default" id="flowchart-FB-18" transform="translate(2362.1015625, 426.25)"><rect class="basic label-container" style="" x="-105.6796875" y="-25.25" width="211.359375" height="50.5"/><g class="label" style="" transform="translate(-77.6796875, -11.25)"><rect/><foreignObject width="155.359375" height="22.5"><div xmlns="http://www.w3.org/1999/xhtml" style="display: table-cell; white-space: nowrap; line-height: 1.5; max-width: 200px; text-align: center;"><span class="nodeLabel"><p>Filebeat Wazuh module</p></span></div></foreignObject></g></g><g class="node default store" id="flowchart-INDEX-19" transform="translate(2602.828125, 426.25)"><path d="M0,14.038693412254743 a80.046875,14.038693412254743 0,0,0 160.09375,0 a80.046875,14.038693412254743 0,0,0 -160.09375,0 l0,50.538693412254744 a80.046875,14.038693412254743 0,0,0 160.09375,0 l0,-50.538693412254744" class="basic label-container" style="fill:#e7f2eb !important;stroke:#487b60 !important" transform="translate(-80.046875, -39.30804011838212)"/><g class="label" style="color:#173b29 !important" transform="translate(-73.046875, -1.916666666666666)"><rect/><foreignObject width="146.09375" height="22.5"><div style="color: rgb(23, 59, 41) !important; display: table-cell; white-space: nowrap; line-height: 1.5; max-width: 200px; text-align: center;" xmlns="http://www.w3.org/1999/xhtml"><span style="color:#173b29 !important" class="nodeLabel"><p>wazuh-alerts-* indices</p></span></div></foreignObject></g></g><g class="node default" id="flowchart-VIEW-20" transform="translate(2865.875, 426.25)"><rect class="basic label-container" style="" x="-128" y="-47.75" width="256" height="95.5"/><g class="label" style="" transform="translate(-100, -33.75)"><rect/><foreignObject width="200" height="67.5"><div xmlns="http://www.w3.org/1999/xhtml" style="display: table; white-space: break-spaces; line-height: 1.5; max-width: 200px; text-align: center; width: 200px;"><span class="nodeLabel"><p>Native dashboard<br />Threat Hunting, Discover and ATT&amp;CK</p></span></div></foreignObject></g></g></g></g></g></svg>